<svg xmlns="http://www.w3.org/2000/svg" xmlns:xlink="http://www.w3.org/1999/xlink" width="580" height="171" viewBox="0 0 580 171">
  <defs>
    <clipPath id="clip-path">
      <rect id="Retângulo_62" data-name="Retângulo 62" width="580" height="171" transform="translate(92 1779)" fill="#fff" stroke="#707070" stroke-width="1"/>
    </clipPath>
  </defs>
  <g id="pv_aberturacap" transform="translate(-92 -1779)" clip-path="url(#clip-path)">
    <g id="Grupo_58" data-name="Grupo 58" transform="translate(79.663 1778.794)">
      <path id="Caminho_92" data-name="Caminho 92" d="M0,0V184.327l46.111-46.11H87l16.359-16.354h24.534l16.357,16.354h32.714l49.073-49.069h57.249l49.071-49.074h39.026l16.357-16h91.14l7.246,7.245h81.14L608.564.033V0Z" fill="#5ebf48"/>
    </g>
    <g id="Grupo_59" data-name="Grupo 59" transform="translate(602.237 1778.793)">
      <path id="Caminho_93" data-name="Caminho 93" d="M0,0-14.414,14.52H-153.131l-16.357,16.355h-31.868L-232.231,0h-2.892L-202.2,32.92h6.135L-243.1,79.947h-57.251l-49.071,49.072h-25.094l-16.355-16.359h-32.159l-16.358,16.359h-40.892l-42.3,42.3v2.89l43.145-43.146h40.895l16.356-16.356h30.465l16.356,16.356h26.787l49.071-49.07h57.251l49.071-49.072h24.537l16.356-16.356H-13.562L2.882,0ZM-401.731,0l-14.518,14.519h-16.358l-24.535,24.535h-59.4L-477.491,0h-2.893L-503.19,22.8v-.109h-19.384v2.047h17.448l-14.312,14.312h-3.136V41.1H-456.3l24.535-24.534H-415.4L-398.931.093-399.024,0Zm31.589,30.874V32.92h114.077L-244.1,44.888l1.445-1.445-12.566-12.569Zm7.754,65.43H-522.574v2.043h161.032l49.373-49.369-1.446-1.446Zm-160.186,26.579h36.224v-2.045h-36.224Z" fill="#87c846"/>
    </g>
    <g id="Grupo_60" data-name="Grupo 60" transform="translate(620.291 1778.793)">
      <path id="Caminho_94" data-name="Caminho 94" d="M0,0-40.075,40.074H-75.542l-4.088-4.088h-97.017l-4.089,4.088H-314.589l-16.356-16.358h-98.143l-24.536,24.538h-87v65.427h10.868l24.536,24.536h18.885l49.072-49.071h81.786l32.714-32.715h32.714l8.178-8.177H-232.8l8.178,8.177h101.17l8.177-8.455H-19L28.977,0Z" fill="#87c846"/>
    </g>
  </g>
</svg>
